<svg width="301" height="82" viewBox="0 0 301 82" fill="none" xmlns="http://www.w3.org/2000/svg">
<path d="M57.9343 56V26.9091H75.9741V30.6875H62.3235V39.5511H74.6815V43.3153H62.3235V56H57.9343ZM81.0309 56V34.1818H85.2781V56H81.0309ZM83.1758 30.8153C82.4371 30.8153 81.8027 30.5691 81.2724 30.0767C80.7515 29.5748 80.4911 28.9782 80.4911 28.2869C80.4911 27.5862 80.7515 26.9896 81.2724 26.4972C81.8027 25.9953 82.4371 25.7443 83.1758 25.7443C83.9144 25.7443 84.5442 25.9953 85.065 26.4972C85.5953 26.9896 85.8604 27.5862 85.8604 28.2869C85.8604 28.9782 85.5953 29.5748 85.065 30.0767C84.5442 30.5691 83.9144 30.8153 83.1758 30.8153ZM101.176 34.1818V37.5909H89.2589V34.1818H101.176ZM92.4549 28.9545H96.7021V49.5938C96.7021 50.4176 96.8252 51.0379 97.0714 51.4545C97.3176 51.8617 97.6348 52.1411 98.0231 52.2926C98.4208 52.4347 98.8517 52.5057 99.3157 52.5057C99.6566 52.5057 99.9549 52.482 100.211 52.4347C100.466 52.3873 100.665 52.3494 100.807 52.321L101.574 55.8295C101.328 55.9242 100.978 56.0189 100.523 56.1136C100.069 56.2178 99.5004 56.2746 98.8185 56.2841C97.7011 56.303 96.6594 56.1042 95.6935 55.6875C94.7276 55.2708 93.9464 54.6269 93.3498 53.7557C92.7532 52.8845 92.4549 51.7907 92.4549 50.4744V28.9545ZM103.414 30.6875V26.9091H125.928V30.6875H116.851V56H112.476V30.6875H103.414ZM128.297 56V34.1818H132.402V37.6477H132.629C133.027 36.4735 133.727 35.5502 134.731 34.8778C135.744 34.196 136.89 33.8551 138.169 33.8551C138.434 33.8551 138.746 33.8646 139.106 33.8835C139.475 33.9025 139.764 33.9261 139.973 33.9545V38.017C139.802 37.9697 139.499 37.9176 139.064 37.8608C138.628 37.7945 138.192 37.7614 137.757 37.7614C136.753 37.7614 135.858 37.9744 135.072 38.4006C134.296 38.8172 133.68 39.3996 133.225 40.1477C132.771 40.8864 132.544 41.7292 132.544 42.6761V56H128.297ZM149.802 56.483C148.42 56.483 147.17 56.2273 146.052 55.7159C144.935 55.1951 144.049 54.4422 143.396 53.4574C142.752 52.4725 142.43 51.2652 142.43 49.8352C142.43 48.6042 142.667 47.5909 143.14 46.7955C143.614 46 144.253 45.3703 145.058 44.9062C145.863 44.4422 146.762 44.0919 147.757 43.8551C148.751 43.6184 149.764 43.4384 150.797 43.3153C152.103 43.1638 153.164 43.0407 153.978 42.946C154.793 42.8419 155.385 42.6761 155.754 42.4489C156.123 42.2216 156.308 41.8523 156.308 41.3409V41.2415C156.308 40.0009 155.958 39.0398 155.257 38.358C154.565 37.6761 153.533 37.3352 152.16 37.3352C150.73 37.3352 149.603 37.6525 148.779 38.2869C147.965 38.9119 147.402 39.608 147.089 40.375L143.098 39.4659C143.571 38.1402 144.262 37.0701 145.172 36.2557C146.09 35.4318 147.146 34.8352 148.339 34.4659C149.532 34.0871 150.787 33.8977 152.103 33.8977C152.975 33.8977 153.898 34.0019 154.873 34.2102C155.858 34.4091 156.777 34.7784 157.629 35.3182C158.491 35.858 159.196 36.6297 159.745 37.6335C160.295 38.6278 160.569 39.9205 160.569 41.5114V56H156.422V53.017H156.251C155.976 53.5663 155.565 54.1061 155.015 54.6364C154.466 55.1667 153.761 55.607 152.899 55.9574C152.037 56.3078 151.005 56.483 149.802 56.483ZM150.725 53.0739C151.9 53.0739 152.904 52.8419 153.737 52.3778C154.58 51.9138 155.219 51.3078 155.654 50.5597C156.1 49.8021 156.322 48.9924 156.322 48.1307V45.3182C156.171 45.4697 155.877 45.6117 155.441 45.7443C155.015 45.8674 154.528 45.9763 153.978 46.071C153.429 46.1562 152.894 46.2367 152.373 46.3125C151.852 46.3788 151.417 46.4356 151.066 46.483C150.243 46.5871 149.49 46.7623 148.808 47.0085C148.136 47.2547 147.596 47.6098 147.189 48.0739C146.791 48.5284 146.592 49.1345 146.592 49.892C146.592 50.9432 146.98 51.7386 147.757 52.2784C148.533 52.8087 149.523 53.0739 150.725 53.0739ZM175.417 56.4403C173.305 56.4403 171.487 55.9621 169.962 55.0057C168.447 54.0398 167.282 52.7093 166.468 51.0142C165.653 49.3191 165.246 47.3778 165.246 45.1903C165.246 42.9744 165.663 41.0189 166.496 39.3239C167.329 37.6193 168.504 36.2888 170.019 35.3324C171.534 34.3759 173.319 33.8977 175.374 33.8977C177.031 33.8977 178.508 34.2055 179.806 34.821C181.103 35.4271 182.15 36.2794 182.945 37.3778C183.75 38.4763 184.228 39.7595 184.38 41.2273H180.246C180.019 40.2045 179.498 39.3239 178.684 38.5852C177.879 37.8466 176.799 37.4773 175.445 37.4773C174.261 37.4773 173.224 37.7898 172.334 38.4148C171.453 39.0303 170.767 39.911 170.275 41.0568C169.782 42.1932 169.536 43.5379 169.536 45.0909C169.536 46.6818 169.777 48.0549 170.26 49.2102C170.743 50.3655 171.425 51.2604 172.306 51.8949C173.196 52.5294 174.242 52.8466 175.445 52.8466C176.25 52.8466 176.979 52.6998 177.632 52.4062C178.295 52.1032 178.849 51.6723 179.294 51.1136C179.749 50.5549 180.066 49.8826 180.246 49.0966H184.38C184.228 50.5076 183.769 51.767 183.002 52.875C182.235 53.983 181.207 54.8542 179.919 55.4886C178.641 56.1231 177.14 56.4403 175.417 56.4403ZM192.828 48.5994L192.799 43.4148H193.538L202.231 34.1818H207.316L197.402 44.6932H196.734L192.828 48.5994ZM188.922 56V26.9091H193.169V56H188.922ZM202.7 56L194.887 45.6307L197.814 42.6619L207.913 56H202.7ZM219.692 56.4403C217.542 56.4403 215.691 55.9811 214.138 55.0625C212.595 54.1345 211.401 52.8324 210.559 51.1562C209.725 49.4706 209.309 47.4962 209.309 45.233C209.309 42.9981 209.725 41.0284 210.559 39.3239C211.401 37.6193 212.576 36.2888 214.081 35.3324C215.596 34.3759 217.367 33.8977 219.394 33.8977C220.625 33.8977 221.818 34.1013 222.973 34.5085C224.129 34.9157 225.166 35.5549 226.084 36.4261C227.003 37.2973 227.727 38.429 228.257 39.821C228.788 41.2036 229.053 42.8845 229.053 44.8636V46.3693H211.709V43.1875H224.891C224.891 42.0701 224.664 41.0805 224.209 40.2188C223.755 39.3475 223.115 38.661 222.292 38.1591C221.477 37.6572 220.521 37.4062 219.422 37.4062C218.229 37.4062 217.187 37.6998 216.297 38.2869C215.417 38.8646 214.735 39.6222 214.252 40.5597C213.778 41.4877 213.542 42.4962 213.542 43.5852V46.071C213.542 47.5294 213.797 48.7699 214.309 49.7926C214.829 50.8153 215.554 51.5966 216.482 52.1364C217.41 52.6667 218.494 52.9318 219.735 52.9318C220.54 52.9318 221.274 52.8182 221.936 52.5909C222.599 52.3542 223.172 52.0038 223.655 51.5398C224.138 51.0758 224.507 50.5028 224.763 49.821L228.783 50.5455C228.461 51.7292 227.883 52.7661 227.05 53.6562C226.226 54.5369 225.189 55.2235 223.939 55.7159C222.699 56.1989 221.283 56.4403 219.692 56.4403ZM233.765 56V34.1818H237.87V37.6477H238.098C238.495 36.4735 239.196 35.5502 240.2 34.8778C241.213 34.196 242.359 33.8551 243.637 33.8551C243.903 33.8551 244.215 33.8646 244.575 33.8835C244.944 33.9025 245.233 33.9261 245.441 33.9545V38.017C245.271 37.9697 244.968 37.9176 244.532 37.8608C244.097 37.7945 243.661 37.7614 243.225 37.7614C242.222 37.7614 241.327 37.9744 240.541 38.4006C239.764 38.8172 239.149 39.3996 238.694 40.1477C238.24 40.8864 238.012 41.7292 238.012 42.6761V56H233.765Z" fill="#1D1F34"/>
<rect x="0.5" y="0.5" width="300" height="81" stroke="black"/>
</svg>
